<svg xmlns="http://www.w3.org/2000/svg" viewBox="0 0 20 32"><g fill="#6472f3"><path d="M18 2V0h-2v3h1v1h3V2h-2zM17 11h3v5h-3zM17 29H3V3h7V0H2v2H0v28h2v2h16v-2h2v-5h-3v4z"/><path d="M17 5h-1V4h-1V3h-1V0h-2v3h-1v1h-1v1H9v1H6v2h3v1h1v1h1v1h1v3h2v-3h1v-1h1V9h1V8h3V6h-3zm-2 3v1h-1v1h-2V9h-1V8h-1V6h1V5h1V4h2v1h1v1h1v2zM4 15h2v1H4zM8 15v-2H7v1H6v1h2z"/><path d="M8 11h1v2H8zM9 15h2v-1h-1v-1H9v2zM9 16v2h1v-1h1v-1H9zM8 18h1v2H8zM8 16H6v1h1v1h1v-2zM11 15h2v1h-2zM11 20h2v1h-2zM15 20v-2h-1v1h-1v1h2zM15 16h1v2h-1zM16 20h2v-1h-1v-1h-1v2zM16 21v2h1v-1h1v-1h-2zM15 23h1v2h-1zM15 21h-2v1h1v1h1v-2zM18 20h2v1h-2z"/></g></svg>