<svg xmlns="http://www.w3.org/2000/svg" width="53.74" height="66.47"><path fill="#6472f3" d="M9.903 64.346L35.36 38.89l2.121 2.122-25.456 25.456zM3.534 57.989l19.092-19.092 2.12 2.121L5.656 60.11z"/><path fill="#6472f3" d="M3.528 60.816l2.122-2.121 5.657 5.657-2.122 2.121zM15.567 43.138l5.657-5.657 2.121 2.121-5.657 5.657zM9.9 37.483l2.122-2.121 2.121 2.12-2.121 2.122z"/><path fill="#6472f3" d="M9.908 40.303l2.122-2.122 4.95 4.95-2.122 2.122z"/><path fill="#6472f3" d="M10.606 36.779l4.95-4.95 2.121 2.122-4.95 4.95zM4.946 31.109l2.121-2.121 2.122 2.12-2.122 2.122z"/><path fill="#6472f3" d="M4.961 33.946l2.121-2.122 4.95 4.95-2.121 2.121z"/><path fill="#6472f3" d="M5.652 30.405l4.95-4.95 2.12 2.122-4.949 4.95zM0 24.746l5.658-5.656 2.121 2.12-5.657 5.658z"/><path fill="#6472f3" d="M.007 27.572l2.121-2.122 4.95 4.95-2.122 2.121zM46.664 58.7l4.95-4.95 2.121 2.122-4.95 4.95zM35.357 51.617l2.121-2.122 8.486 8.485-2.122 2.122zM46.661 47.379l2.121-2.122 4.95 4.95-2.121 2.122zM46.673 34.645l3.535-3.536 2.121 2.121-3.535 3.536zM45.958 39.604l2.121-2.122 2.121 2.122-2.12 2.121z"/><path fill="#6472f3" d="M46.67 37.483l2.122-2.122 2.121 2.122-2.12 2.12zM45.959 42.435l2.121-2.121 2.122 2.12-2.122 2.122z"/><path fill="#6472f3" d="M45.953 45.249l2.121-2.121 2.122 2.12-2.122 2.122zM35.36 48.787l2.122-2.12 2.121 2.12-2.12 2.122z"/><path fill="#6472f3" d="M35.36 45.956l2.121-2.121 2.121 2.121-2.121 2.122z"/><path fill="#6472f3" d="M35.359 43.125l2.12-2.121 2.122 2.121-2.121 2.121zM48.075 21.923l2.122-2.121 2.12 2.121-2.12 2.121z"/><path fill="#6472f3" d="M48.076 24.754l2.122-2.121 2.121 2.121-2.121 2.121z"/><path fill="#6472f3" d="M48.077 27.585l2.122-2.121 2.121 2.121-2.121 2.122z"/><path fill="#6472f3" d="M48.079 30.416l2.12-2.121 2.122 2.121-2.121 2.122zM4.246 20.497L24.752-.009l2.122 2.121L6.368 22.62zM31.116 2.127L33.238.005l19.091 19.092-2.12 2.122zM43.837 58.691l2.122-2.12 2.121 2.12-2.121 2.122zM49.497 53.027l2.122-2.121 2.121 2.121-2.121 2.121z"/><path fill="#6472f3" d="M28.29 2.116l2.122-2.121 2.122 2.12-2.122 2.122z"/><path fill="#6472f3" d="M25.46 2.117L27.58-.004l2.121 2.121-2.12 2.121zM3.539 21.206l2.121-2.122 2.121 2.122-2.121 2.12z"/></svg>