<svg version="1" xmlns="http://www.w3.org/2000/svg" width="1445.333" height="1445.333" viewBox="0 0 1084.000000 1084.000000"><path d="M176.5 1.1C139.7 5.8 104.4 20.4 76 43c-8.3 6.6-24.6 22.6-31.5 31-18 22-32.4 51-39.1 78.5C-.3 176.2 0 154.2 0 522.9v339.4l6.5 8.7c12.1 16.2 19.4 21.2 28.4 19.1 7.2-1.6 11.8-6 26.1-25.6 8.9-12.2 19.4-23.2 27.7-29.1 16.3-11.7 37.1-16.5 57.1-13 23.3 4.1 38.2 14.7 59 42 12.8 16.9 16.3 20.9 20.9 23.7 4.2 2.6 12.4 2.9 16.8.6 4.3-2.2 12.1-10.7 20.5-22.2 18.8-25.6 32.8-36.8 53.6-42.6 10.2-2.9 28.5-3.2 38.4-.6 13.7 3.7 29.5 13.1 39.1 23.4 2.5 2.7 9.2 11.1 15.1 18.8 16.6 21.9 20.2 24.9 29.5 24.8 8.8-.1 12.8-3.5 27.9-24 10.3-13.9 20.5-24.8 29.1-30.9 19.7-14.2 46.4-18 69.5-10 16.8 5.9 30.1 17.1 47.4 39.9 12.3 16.3 15.6 20 20.2 22.9 4.1 2.5 12.4 2.8 16.7.5 4.3-2.2 12.1-10.7 20.5-22.2 14.6-19.9 24.5-29.4 38-36.5 12-6.2 21.3-8.4 35.5-8.4 19.1 0 33.4 5.1 48.6 17.2 8.3 6.6 12.4 11.2 25.7 28.9 14.6 19.4 18.7 22.7 27.9 22.6 8.7-.1 12.5-3.5 31.5-28.8 11.3-15.1 23.5-26.2 35-31.8 27.4-13.6 57.6-10.7 81.8 7.9 8 6.1 14.5 13.2 25.5 27.9 16.1 21.4 20.1 24.8 28.9 24.8 2.8 0 6.5-.7 8.1-1.6 4.3-2.2 11.2-9.7 19.9-21.7l7.6-10.4V523c0-211.9-.4-337-1-343-7.2-69-49.2-129.1-111.5-159.6C950.1 10 928 3.5 905.8 1.1 893.7-.3 187-.2 176.5 1.1zM655 191.5V246h116v117H655v224h116v118H654V588H541V476H426v229H312V137h343v54.5z"/><path d="M426 304.5V362h228V247H426v57.5zM128.2 880c-5.7 1.4-10 5.7-24.2 24.5-5.3 7.2-14.1 17.2-19.4 22.3-7.9 7.5-11.4 10-18.9 13.7-5.1 2.4-12.3 5.2-16.2 6.1-8.1 2-27.5 2.3-34.5.6-2.4-.6-4.6-.9-4.9-.7-1.7 1.7 13.6 33.7 22.3 46.8 34 50.8 85.2 82.4 145.6 89.7 11.9 1.4 714.5 1.4 727.8-.1 53.2-5.7 104.5-34.8 137-77.7 12.1-15.8 23.2-36.1 29.5-53.8l2.5-7.1-6.6 2c-10 2.9-29 2.9-39.5-.1s-19.9-7.9-28.8-15c-8.3-6.6-12.4-11.2-25.7-28.9-14.6-19.4-18.7-22.7-27.9-22.6-8.7.1-12.8 3.6-28.8 25.3-21.7 29.3-39.7 41-67 43.5-13 1.2-30.9-2.7-42.5-9.3-12.4-7.1-21.9-16.3-35.9-35.2-15.5-20.7-19.7-24.3-28.5-24.3-2.8 0-6.5.7-8.1 1.6-4.4 2.3-11.1 9.7-21.1 23.2-10.1 13.8-22.2 26.3-30.9 32-12.9 8.5-32.9 13.5-47.9 12.1-17.5-1.7-31.1-7.6-46-20-5-4.2-9.1-9.2-25.5-30.5-12.7-16.5-18.6-20.3-28.3-18-6 1.4-11.8 7.1-24.8 24.4-5.4 7.2-14 17.1-19.4 22.2-7.9 7.6-11.4 10.1-18.9 13.8-25.7 12.4-53.7 10.7-77.1-4.9-9.9-6.6-17.9-14.9-30.5-31.6-15.7-20.8-19.8-24.3-28.5-24.3-2.8 0-6.5.7-8.1 1.6-4.4 2.3-11.1 9.7-21.1 23.2-10.1 13.8-22.2 26.3-30.9 32-21 13.8-50 16-73.1 5.5-15.4-6.9-24.5-15.3-43-39.5-13.6-17.8-18.2-21.9-25.4-22.9-1.9-.2-5-.1-6.8.4z"/></svg>