<svg xmlns="http://www.w3.org/2000/svg" width="179" height="40"><path fill="#6472f3" d="M179 14v20h-3V14zM6 37h167v3H6zM6 8h80v3H6z"/><path fill="#6472f3" d="M177 33v3h-3v-3z"/><path fill="#6472f3" d="M175 35v3h-3v-3zM7 10v3H4v-3z"/><path fill="#6472f3" d="M5 12v3H2v-3z"/><path fill="#6472f3" d="M3 14v20H0V14z"/><path fill="#6472f3" d="M5 33v3H2v-3z"/><path fill="#6472f3" d="M7 35v3H4v-3zM175 10v3h-3v-3z"/><path fill="#6472f3" d="M173 8v3H93V8zM177 12v3h-3v-3zM88 0h3v3h-3z"/><path fill="#6472f3" d="M89 2h3v3h-3z"/><path fill="#6472f3" d="M90 4h3v3h-3z"/><path fill="#6472f3" d="M91 6h3v3h-3zM88 0h3v3h-3z"/><path fill="#6472f3" d="M87 2h3v3h-3z"/><path fill="#6472f3" d="M86 4h3v3h-3z"/><path fill="#6472f3" d="M85 6h3v3h-3z"/></svg>