<svg xmlns="http://www.w3.org/2000/svg" viewBox="0 0 32 22"><path fill="none" d="M22 6v1h4V6h1V2h-1V1h-4v1h-1v4h1zM11 6V2h-1V1H6v1H5v4h1v1h4V6h1z"/><path fill="#6472f3" d="M5 10h1v1H5zM6 11h4v1H6zM10 10h1v1h-1zM1 15v-5H0v6h7v-1H1zM1 9h4v1H1zM6 0h4v1H6zM5 1h1v1H5zM4 2h1v4H4zM5 6h1v1H5zM6 7h4v1H6zM10 1h1v1h-1zM11 2h1v4h-1zM10 6h1v1h-1zM21 10h1v1h-1zM22 11h4v1h-4zM26 10h1v1h-1zM31 10v5h-6v1h7v-6h-1zM27 9h4v1h-4zM22 0h4v1h-4zM21 1h1v1h-1zM20 2h1v4h-1zM21 6h1v1h-1zM22 7h4v1h-4zM26 1h1v1h-1zM27 2h1v4h-1zM26 6h1v1h-1zM14 16h-1v1h1v-1zM18 17h-4v1h4v-1zM19 16h-1v1h1v-1z"/><path fill="#6472f3" d="M24 16h-1v5H9v-5H8v6h16v-6zM13 15H9v1h4v-1zM23 15h-4v1h4v-1zM18 6h-4v1h4V6zM14 7h-1v1h1V7zM13 8h-1v4h1V8zM14 12h-1v1h1v-1zM18 13h-4v1h4v-1zM19 7h-1v1h1V7zM20 8h-1v4h1V8zM19 12h-1v1h1v-1z"/></svg>