<svg xmlns="http://www.w3.org/2000/svg" width="60" height="64"><path fill="#6472f3" d="M22 2h3v36h-3zM31 2h3v27h-3z"/><path fill="#6472f3" d="M24 0h8v3h-8zM33 21h3v8h-3zM41 21h3v3h-3z"/><path fill="#6472f3" d="M35 19h7v3h-7zM41 22h3v7h-3zM49 22h3v3h-3z"/><path fill="#6472f3" d="M43 20h7v3h-7zM49 23h3v7h-3zM57 23h3v8h-3z"/><path fill="#6472f3" d="M51 21h7v3h-7zM0 32h3v7H0zM4 29h12v3H4zM4 40h7v3H4zM17 49h3v5h-3zM14 45h3v3h-3z"/><path fill="#6472f3" d="M15 47h3v3h-3zM12 43h3v3h-3z"/><path fill="#6472f3" d="M10 41h3v3h-3zM15 31h3v3h-3z"/><path fill="#6472f3" d="M17 33h3v3h-3z"/><path fill="#6472f3" d="M19 35h3v3h-3zM25 59h3v3h-3z"/><path fill="#6472f3" d="M23 57h3v3h-3z"/><path fill="#6472f3" d="M21 55h3v3h-3z"/><path fill="#6472f3" d="M19 53h3v3h-3zM57 29h3v29h-3zM27 61h27v3H27zM2 30h3v3H2zM2 38h3v3H2z"/><path fill="#6472f3" d="M53 59h3v3h-3z"/><path fill="#6472f3" d="M55 57h3v3h-3zM57 28h3v3h-3z"/></svg>