<svg xmlns="http://www.w3.org/2000/svg" width="179" height="40" viewBox="0 0 179 40"><title>Globo de Texto</title><rect x="167.5" y="22.5" width="20" height="3" transform="translate(201.5 -153.5) rotate(90)" fill="#6472f3"/><rect x="6" y="37" width="167" height="3" fill="#6472f3"/><rect x="6" y="8" width="80" height="3" fill="#6472f3"/><rect x="174" y="33" width="3" height="3" transform="translate(210 -141) rotate(90)" fill="#6472f3"/><rect x="172" y="35" width="3" height="3" transform="translate(210 -137) rotate(90)" fill="#6472f3"/><rect x="4" y="10" width="3" height="3" transform="translate(17 6) rotate(90)" fill="#6472f3"/><rect x="2" y="12" width="3" height="3" transform="translate(17 10) rotate(90)" fill="#6472f3"/><rect x="-8.5" y="22.5" width="20" height="3" transform="translate(25.5 22.5) rotate(90)" fill="#6472f3"/><rect x="2" y="33" width="3" height="3" transform="translate(38 31) rotate(90)" fill="#6472f3"/><rect x="4" y="35" width="3" height="3" transform="translate(42 31) rotate(90)" fill="#6472f3"/><rect x="172" y="10" width="3" height="3" transform="translate(185 -162) rotate(90)" fill="#6472f3"/><rect x="131.5" y="-30.5" width="3" height="80" transform="translate(142.5 -123.5) rotate(90)" fill="#6472f3"/><rect x="174" y="12" width="3" height="3" transform="translate(189 -162) rotate(90)" fill="#6472f3"/><rect x="88" width="3" height="3" fill="#6472f3"/><rect x="89" y="2" width="3" height="3" fill="#6472f3"/><rect x="90" y="4" width="3" height="3" fill="#6472f3"/><rect x="91" y="6" width="3" height="3" fill="#6472f3"/><rect x="88" width="3" height="3" fill="#6472f3"/><rect x="87" y="2" width="3" height="3" fill="#6472f3"/><rect x="86" y="4" width="3" height="3" fill="#6472f3"/><rect x="85" y="6" width="3" height="3" fill="#6472f3"/></svg>