<svg xmlns="http://www.w3.org/2000/svg" viewBox="0 0 32 22"><title>Usuarios-2-32</title><polygon points="22 6 22 7 26 7 26 6 27 6 27 2 26 2 26 1 22 1 22 2 21 2 21 6 22 6" fill="none"/><polygon points="11 6 11 2 10 2 10 1 6 1 6 2 5 2 5 6 6 6 6 7 10 7 10 6 11 6" fill="none"/><rect x="5" y="10" width="1" height="1" fill="#6472f3"/><rect x="6" y="11" width="4" height="1" fill="#6472f3"/><rect x="10" y="10" width="1" height="1" fill="#6472f3"/><polygon points="1 15 1 10 0 10 0 15 0 16 1 16 7 16 7 15 1 15" fill="#6472f3"/><rect x="1" y="9" width="4" height="1" fill="#6472f3"/><rect x="6" width="4" height="1" fill="#6472f3"/><rect x="5" y="1" width="1" height="1" fill="#6472f3"/><rect x="4" y="2" width="1" height="4" fill="#6472f3"/><rect x="5" y="6" width="1" height="1" fill="#6472f3"/><rect x="6" y="7" width="4" height="1" fill="#6472f3"/><rect x="10" y="1" width="1" height="1" fill="#6472f3"/><rect x="11" y="2" width="1" height="4" fill="#6472f3"/><rect x="10" y="6" width="1" height="1" fill="#6472f3"/><rect x="21" y="10" width="1" height="1" fill="#6472f3"/><rect x="22" y="11" width="4" height="1" fill="#6472f3"/><rect x="26" y="10" width="1" height="1" fill="#6472f3"/><polygon points="31 10 31 15 25 15 25 16 31 16 32 16 32 15 32 10 31 10" fill="#6472f3"/><rect x="27" y="9" width="4" height="1" fill="#6472f3"/><rect x="22" width="4" height="1" fill="#6472f3"/><rect x="21" y="1" width="1" height="1" fill="#6472f3"/><rect x="20" y="2" width="1" height="4" fill="#6472f3"/><rect x="21" y="6" width="1" height="1" fill="#6472f3"/><rect x="22" y="7" width="4" height="1" fill="#6472f3"/><rect x="26" y="1" width="1" height="1" fill="#6472f3"/><rect x="27" y="2" width="1" height="4" fill="#6472f3"/><rect x="26" y="6" width="1" height="1" fill="#6472f3"/><polygon points="14 16 13 16 13 17 14 17 14 16 14 16" fill="#6472f3"/><polygon points="18 17 14 17 14 18 18 18 18 17 18 17" fill="#6472f3"/><polygon points="19 16 18 16 18 17 19 17 19 16 19 16" fill="#6472f3"/><polygon points="24 16 23 16 23 21 9 21 9 16 8 16 8 21 8 22 9 22 23 22 24 22 24 21 24 16 24 16" fill="#6472f3"/><polygon points="13 15 9 15 9 16 13 16 13 15 13 15" fill="#6472f3"/><polygon points="23 15 19 15 19 16 23 16 23 15 23 15" fill="#6472f3"/><polygon points="18 6 14 6 14 7 18 7 18 6 18 6" fill="#6472f3"/><polygon points="14 7 13 7 13 8 14 8 14 7 14 7" fill="#6472f3"/><polygon points="13 8 12 8 12 12 13 12 13 8 13 8" fill="#6472f3"/><polygon points="14 12 13 12 13 13 14 13 14 12 14 12" fill="#6472f3"/><polygon points="18 13 14 13 14 14 18 14 18 13 18 13" fill="#6472f3"/><polygon points="19 7 18 7 18 8 19 8 19 7 19 7" fill="#6472f3"/><polygon points="20 8 19 8 19 12 20 12 20 8 20 8" fill="#6472f3"/><polygon points="19 12 18 12 18 13 19 13 19 12 19 12" fill="#6472f3"/></svg>