<svg xmlns="http://www.w3.org/2000/svg" viewBox="0 0 20 32">
  <title>Portafolio-32</title>
  <g>
    <polygon points="18 2 18 0 16 0 16 3 17 3 17 4 20 4 20 2 18 2" fill="#6472f3"/>
    <rect x="17" y="11" width="3" height="5" fill="#6472f3"/>
    <polygon points="17 29 3 29 3 3 10 3 10 0 2 0 2 2 0 2 0 30 2 30 2 32 18 32 18 30 20 30 20 25 17 25 17 29" fill="#6472f3"/>
    <path d="M17,5H16V4H15V3H14V0H12V3H11V4H10V5H9V6H6V8H9V9h1v1h1v1h1v3h2V11h1V10h1V9h1V8h3V6H17ZM15,8V9H14v1H12V9H11V8H10V6h1V5h1V4h2V5h1V6h1V8Z" fill="#6472f3"/>
    <rect x="4" y="15" width="2" height="1" fill="#6472f3"/>
    <polygon points="8 15 8 14 8 13 7 13 7 14 6 14 6 15 7 15 8 15" fill="#6472f3"/>
    <rect x="8" y="11" width="1" height="2" fill="#6472f3"/>
    <polygon points="9 15 10 15 11 15 11 14 10 14 10 13 9 13 9 14 9 15" fill="#6472f3"/>
    <polygon points="9 16 9 17 9 18 10 18 10 17 11 17 11 16 10 16 9 16" fill="#6472f3"/>
    <rect x="8" y="18" width="1" height="2" fill="#6472f3"/>
    <polygon points="8 16 7 16 6 16 6 17 7 17 7 18 8 18 8 17 8 16" fill="#6472f3"/>
    <rect x="11" y="15" width="2" height="1" fill="#6472f3"/>
    <rect x="11" y="20" width="2" height="1" fill="#6472f3"/>
    <polygon points="15 20 15 19 15 18 14 18 14 19 13 19 13 20 14 20 15 20" fill="#6472f3"/>
    <rect x="15" y="16" width="1" height="2" fill="#6472f3"/>
    <polygon points="16 20 17 20 18 20 18 19 17 19 17 18 16 18 16 19 16 20" fill="#6472f3"/>
    <polygon points="16 21 16 22 16 23 17 23 17 22 18 22 18 21 17 21 16 21" fill="#6472f3"/>
    <rect x="15" y="23" width="1" height="2" fill="#6472f3"/>
    <polygon points="15 21 14 21 13 21 13 22 14 22 14 23 15 23 15 22 15 21" fill="#6472f3"/>
    <rect x="18" y="20" width="2" height="1" fill="#6472f3"/>
  </g>
</svg>
