<svg xmlns="http://www.w3.org/2000/svg" viewBox="0 0 32 32" height="32" width="32"><title>linea-overlay</title><polygon points="31 0 30 0 30 1 29 1 29 2 28 2 28 3 27 3 27 4 26 4 26 5 25 5 25 6 24 6 24 7 23 7 23 8 22 8 22 9 21 9 21 10 20 10 20 11 19 11 19 12 18 12 18 13 17 13 17 14 16 14 16 15 15 15 15 16 14 16 14 17 13 17 13 18 12 18 12 19 11 19 11 20 10 20 10 21 9 21 9 22 8 22 8 23 7 23 7 24 6 24 6 25 5 25 5 26 4 26 4 27 3 27 3 28 2 28 2 29 1 29 1 30 0 30 0 31 0 32 1 32 2 32 2 31 3 31 3 30 4 30 4 29 5 29 5 28 6 28 6 27 7 27 7 26 8 26 8 25 9 25 9 24 10 24 10 23 11 23 11 22 12 22 12 21 13 21 13 20 14 20 14 19 15 19 15 18 16 18 16 17 17 17 17 16 18 16 18 15 19 15 19 14 20 14 20 13 21 13 21 12 22 12 22 11 23 11 23 10 24 10 24 9 25 9 25 8 26 8 26 7 27 7 27 6 28 6 28 5 29 5 29 4 30 4 30 3 31 3 31 2 32 2 32 1 32 0 31 0" fill="#6472f3"/></svg>