<svg xmlns="http://www.w3.org/2000/svg" width="60" height="64" viewBox="0 0 60 64"><title>Puntero</title><rect x="22" y="2" width="3" height="36" fill="#6472f3"/><rect x="31" y="2" width="3" height="27" fill="#6472f3"/><rect x="24" width="8" height="3" fill="#6472f3"/><rect x="33" y="21" width="3" height="8" fill="#6472f3"/><rect x="41" y="21" width="3" height="3" fill="#6472f3"/><rect x="35" y="19" width="7" height="3" fill="#6472f3"/><rect x="41" y="22" width="3" height="7" fill="#6472f3"/><rect x="49" y="22" width="3" height="3" fill="#6472f3"/><rect x="43" y="20" width="7" height="3" fill="#6472f3"/><rect x="49" y="23" width="3" height="7" fill="#6472f3"/><rect x="57" y="23" width="3" height="8" fill="#6472f3"/><rect x="51" y="21" width="7" height="3" fill="#6472f3"/><rect y="32" width="3" height="7" fill="#6472f3"/><rect x="4" y="29" width="12" height="3" fill="#6472f3"/><rect x="4" y="40" width="7" height="3" fill="#6472f3"/><rect x="17" y="49" width="3" height="5" fill="#6472f3"/><rect x="14" y="45" width="3" height="3" fill="#6472f3"/><rect x="15" y="47" width="3" height="3" fill="#6472f3"/><rect x="12" y="43" width="3" height="3" fill="#6472f3"/><rect x="10" y="41" width="3" height="3" fill="#6472f3"/><rect x="15" y="31" width="3" height="3" fill="#6472f3"/><rect x="17" y="33" width="3" height="3" fill="#6472f3"/><rect x="19" y="35" width="3" height="3" fill="#6472f3"/><rect x="25" y="59" width="3" height="3" fill="#6472f3"/><rect x="23" y="57" width="3" height="3" fill="#6472f3"/><rect x="21" y="55" width="3" height="3" fill="#6472f3"/><rect x="19" y="53" width="3" height="3" fill="#6472f3"/><rect x="57" y="29" width="3" height="29" fill="#6472f3"/><rect x="27" y="61" width="27" height="3" fill="#6472f3"/><rect x="2" y="30" width="3" height="3" fill="#6472f3"/><rect x="2" y="38" width="3" height="3" fill="#6472f3"/><rect x="53" y="59" width="3" height="3" fill="#6472f3"/><rect x="55" y="57" width="3" height="3" fill="#6472f3"/><rect x="57" y="28" width="3" height="3" fill="#6472f3"/></svg>