<svg xmlns="http://www.w3.org/2000/svg" width="53.74" height="66.47" viewBox="0 0 53.74 66.47"><title>Puntero_rotado</title><rect x="5.69" y="51.18" width="36" height="3" transform="translate(-30.31 32.18) rotate(-45)" fill="#6472f3"/><rect x="0.64" y="48" width="27" height="3" transform="translate(-30.86 24.5) rotate(-45)" fill="#6472f3"/><rect x="5.92" y="58.58" width="3" height="8" transform="translate(-42.08 23.58) rotate(-45)" fill="#6472f3"/><rect x="15.45" y="39.87" width="8" height="3" transform="translate(-23.55 25.87) rotate(-45)" fill="#6472f3"/><rect x="10.52" y="35.98" width="3" height="3" transform="translate(-22.98 19.48) rotate(-45)" fill="#6472f3"/><rect x="11.94" y="38.22" width="3" height="7" transform="translate(-25.56 21.72) rotate(-45)" fill="#6472f3"/><rect x="10.64" y="33.86" width="7" height="3" transform="translate(-20.86 20.36) rotate(-45)" fill="#6472f3"/><rect x="5.57" y="29.61" width="3" height="3" transform="translate(-19.93 14.11) rotate(-45)" fill="#6472f3"/><rect x="6.99" y="31.86" width="3" height="7" transform="translate(-22.51 16.36) rotate(-45)" fill="#6472f3"/><rect x="5.69" y="27.49" width="7" height="3" transform="translate(-17.81 14.99) rotate(-45)" fill="#6472f3"/><rect x="-0.11" y="21.48" width="8" height="3" transform="translate(-15.11 9.48) rotate(-45)" fill="#6472f3"/><rect x="2.04" y="25.49" width="3" height="7" transform="translate(-19.46 10.99) rotate(-45)" fill="#6472f3"/><rect x="46.7" y="55.78" width="7" height="3" transform="translate(-25.8 52.28) rotate(-45)" fill="#6472f3"/><rect x="39.16" y="48.8" width="3" height="12" transform="translate(-26.84 44.8) rotate(-45)" fill="#6472f3"/><rect x="48.7" y="45.29" width="3" height="7" transform="translate(-19.8 49.79) rotate(-45)" fill="#6472f3"/><rect x="47" y="32.44" width="5" height="3" transform="translate(-9.5 44.94) rotate(-45)" fill="#6472f3"/><rect x="46.58" y="38.1" width="3" height="3" transform="translate(-13.92 45.6) rotate(-45)" fill="#6472f3"/><rect x="47.29" y="35.98" width="3" height="3" transform="translate(-12.21 45.48) rotate(-45)" fill="#6472f3"/><rect x="46.58" y="40.93" width="3" height="3" transform="translate(-15.92 46.43) rotate(-45)" fill="#6472f3"/><rect x="46.58" y="43.75" width="3" height="3" transform="translate(-17.92 47.25) rotate(-45)" fill="#6472f3"/><rect x="35.98" y="47.29" width="3" height="3" transform="translate(-23.52 40.79) rotate(-45)" fill="#6472f3"/><rect x="35.98" y="44.46" width="3" height="3" transform="translate(-21.52 39.96) rotate(-45)" fill="#6472f3"/><rect x="35.98" y="41.63" width="3" height="3" transform="translate(-19.52 39.13) rotate(-45)" fill="#6472f3"/><rect x="48.7" y="20.42" width="3" height="3" transform="translate(-0.8 41.92) rotate(-45)" fill="#6472f3"/><rect x="48.7" y="23.25" width="3" height="3" transform="translate(-2.8 42.75) rotate(-45)" fill="#6472f3"/><rect x="48.7" y="26.08" width="3" height="3" transform="translate(-4.8 43.58) rotate(-45)" fill="#6472f3"/><rect x="48.7" y="28.91" width="3" height="3" transform="translate(-6.8 44.41) rotate(-45)" fill="#6472f3"/><rect x="1.06" y="9.81" width="29" height="3" transform="translate(-3.44 14.31) rotate(-45)" fill="#6472f3"/><rect x="40.22" y="-2.89" width="3" height="27" transform="translate(4.72 32.61) rotate(-45)" fill="#6472f3"/><rect x="44.46" y="57.19" width="3" height="3" transform="translate(-28.04 49.69) rotate(-45)" fill="#6472f3"/><rect x="50.12" y="51.53" width="3" height="3" transform="translate(-22.38 52.03) rotate(-45)" fill="#6472f3"/><rect x="28.91" y="0.62" width="3" height="3" transform="translate(7.41 22.12) rotate(-45)" fill="#6472f3"/><rect x="26.08" y="0.62" width="3" height="3" transform="translate(6.58 20.12) rotate(-45)" fill="#6472f3"/><rect x="4.16" y="19.71" width="3" height="3" transform="translate(-13.34 10.21) rotate(-45)" fill="#6472f3"/></svg>